<?xml version="1.0" standalone="no"?>
<!DOCTYPE svg PUBLIC "-//W3C//DTD SVG 20010904//EN"
 "http://www.w3.org/TR/2001/REC-SVG-20010904/DTD/svg10.dtd">
<svg version="1.0" xmlns="http://www.w3.org/2000/svg"
 width="500.000000pt" height="500.000000pt" viewBox="0 0 500.000000 500.000000"
 preserveAspectRatio="xMidYMid meet">
<metadata>
Created by potrace 1.14, written by Peter Selinger 2001-2017
</metadata>
<g transform="translate(0.000000,500.000000) scale(0.100000,-0.100000)"
fill="#000000" stroke="none">
<path d="M2160 3006 c-16 -25 -30 -47 -30 -49 0 -3 57 -7 128 -9 145 -5 203
-23 241 -77 l22 -31 -164 0 -165 0 -31 -47 -30 -48 201 -3 201 -2 -6 -35 c-17
-102 -134 -165 -309 -165 l-58 0 0 -47 c0 -47 4 -52 201 -295 l200 -248 90 0
90 0 -183 226 c-101 124 -193 238 -205 254 l-23 28 73 16 c131 29 220 98 262
202 l24 59 63 3 63 3 33 49 32 50 -97 0 -98 0 -26 55 -25 55 87 0 88 0 31 44
c16 25 30 47 30 50 0 3 -153 6 -340 6 l-339 0 -31 -44z"/>
</g>
</svg>
